{"title":"Tom Jones(1963)MPEG-4[DaScubaDude]","uid":15291610,"size":1301495757,"categoryP":"video","categoryS":"movies","magnet":"?xt=urn:btih:162d327af4375fab5fd23f518ce7968a4a9d5323&amp;dn=Tom+Jones%281963%29MPEG-4%5BDaScubaDude%5D&amp;tr=udp%3A%2F%2Ftracker.leechers-paradise.org%3A6969&amp;tr=udp%3A%2F%2Fzer0day.ch%3A1337&amp;tr=udp%3A%2F%2Fopen.demonii.com%3A1337&amp;tr=udp%3A%2F%2Ftracker.coppersurfer.tk%3A6969&amp;tr=udp%3A%2F%2Fexodus.desync.com%3A6969","seeders":4,"leechers":2,"uploader":"dascuba","files":1,"time":1468425713,"description":"Tom Jones (1963)\r\nUnrated | 2h 8min | Adventure, Comedy, History | 11 December 1963 (France)\r\nIn eighteenth century England, &quot;first cousins&quot; Tom Jones and Master Blifil grew up together in privilege in the western countryside, but could not be more different in nature. Tom, the ... See full summary »\r\nDirector: Tony Richardson\r\nWriters: John Osborne (screenplay), Henry Fielding (novel)\r\nStars: Albert Finney, Susannah York, George Devine |\r\n\r\n\r\nGeneral\r\nComplete name                            : Tom JonesTOM_JONES_Title1.mp4\r\nFormat                                   : MPEG-4\r\nFormat profile                           : Base Media\r\nCodec ID                                 : isom (isom/iso2/avc1/mp41)\r\nFile size                                : 1.21 GiB\r\nDuration                                 : 2h 8mn\r\nOverall bit rate                         : 1 348 Kbps\r\nMovie name                               : TOM_JONES\r\nGenre                                    : Adventure\r\nWriting application                      : Lavf54.6.100\r\n\r\nVideo\r\nID                                       : 1\r\nFormat                                   : AVC\r\nFormat/Info                              : Advanced Video Codec\r\nFormat profile                           :   \r\nFormat settings, CABAC                   : No\r\nFormat settings, ReFrames                : 6 frames\r\nCodec ID                                 : avc1\r\nCodec ID/Info                            : Advanced Video Coding\r\nDuration                                 : 2h 8mn\r\nBit rate                                 : 1 205 Kbps\r\nWidth                                    : 720 pixels\r\nHeight                                   : 540 pixels\r\nDisplay aspect ratio                     : 4:3\r\nFrame rate mode                          : Constant\r\nFrame rate                               : 29.970 (30000/1001) fps\r\nColor space                              : YUV\r\nChroma subsampling                       : 4:2:0\r\nBit depth                                : 8 bits\r\nScan type                                : Progressive\r\nBits/(Pixel*Frame)                       : 0.103\r\nStream size                              : 1.08 GiB (89%)\r\n\r\nAudio\r\nID                                       : 2\r\nFormat                                   : AAC\r\nFormat/Info                              : Advanced Audio Codec\r\nFormat profile                           : LC\r\nCodec ID                                 : 40\r\nDuration                                 : 2h 8mn\r\nBit rate mode                            : Constant\r\nBit rate                                 : 137 Kbps\r\nChannel(s)                               : 2 channels\r\nChannel positions                        : Front: L R\r\nSampling rate                            : 44.1 KHz\r\nFrame rate                               : 43.066 fps (1024 spf)\r\nCompression mode                         : Lossy\r\nStream size                              : 126 MiB (10%)\r\nDefault                                  : Yes\r\nAlternate group                          : 1","torrent":{"xt":"urn:btih:162d327af4375fab5fd23f518ce7968a4a9d5323","amp;dn":"Tom+Jones%281963%29MPEG-4%5BDaScubaDude%5D","amp;tr":["udp%3A%2F%2Ftracker.leechers-paradise.org%3A6969","udp%3A%2F%2Fzer0day.ch%3A1337","udp%3A%2F%2Fopen.demonii.com%3A1337","udp%3A%2F%2Ftracker.coppersurfer.tk%3A6969","udp%3A%2F%2Fexodus.desync.com%3A6969"],"infoHash":"162d327af4375fab5fd23f518ce7968a4a9d5323","infoHashBuffer":{"type":"Buffer","data":[22,45,50,122,244,55,95,171,95,210,63,81,140,231,150,138,74,157,83,35]},"announce":[],"urlList":[]}}